<svg width="128" height="32" viewBox="0 0 128 32" fill="none" xmlns="http://www.w3.org/2000/svg">
<path fill-rule="evenodd" clip-rule="evenodd" d="M8.59569 16C8.59569 18.9539 11.0244 21.4466 14.103 21.4466C15.5487 21.4466 16.5957 20.8919 17.8265 20.0008C18.4714 19.5381 19.0868 19.0162 20.1945 19.0162C21.1184 19.0162 21.8568 19.3543 22.3803 19.7547C23.1795 20.3701 23.6111 21.2316 23.6111 22.3081C23.6111 23.4453 23.1188 24.215 22.5936 24.7992C20.9657 26.6453 17.6115 28.3077 13.8585 28.3077C6.93333 28.3077 1.64103 22.5838 1.64103 16C1.64103 9.41622 6.96451 3.69232 13.8568 3.69232C17.5803 3.69232 20.841 5.35468 22.4722 7.19919C22.9957 7.78504 23.488 8.55468 23.488 9.69355C23.488 10.7389 23.0564 11.63 22.2572 12.247C21.6107 12.7393 20.8722 12.9855 20.0714 12.9855C18.9637 12.9855 18.3483 12.4603 17.7034 12.0008C16.5957 11.2 15.5799 10.5535 14.0406 10.5535C11.0277 10.5535 8.59569 13.0462 8.59569 16ZM95.1795 9.13889V14.83H99.4265C100.995 14.83 102.195 13.5992 102.195 11.9992C102.195 10.4304 100.964 9.13889 99.4265 9.13889H95.1795ZM67.2722 16C67.2722 19.9073 70.3491 23.0761 74.1645 23.0761C77.9487 23.0761 81.0568 19.9089 81.0568 16C81.0568 12.1223 77.9487 8.92227 74.1645 8.92227C70.3491 8.92227 67.2722 12.1223 67.2722 16ZM114.596 26.8931C113.395 26.8931 112.75 26.2154 112.75 25.1077V6.86114C112.75 5.66155 113.456 5.07735 114.596 5.07735H124.688C125.827 5.07735 126.535 5.66155 126.535 6.86114V7.35345C126.535 8.55468 125.827 9.13889 124.688 9.13889H117.058V13.998H123.395C124.534 13.998 125.241 14.5822 125.241 15.7834V16.3069C125.241 17.4753 124.534 18.0595 123.395 18.0595H117.058V22.83H124.811C125.98 22.83 126.658 23.4437 126.658 24.6138V25.1372C126.658 26.3057 125.98 26.8915 124.811 26.8915L114.596 26.8931ZM95.1795 25.1077C95.1795 26.2154 94.5641 26.8931 93.3645 26.8931H92.7179C91.5184 26.8931 90.8718 26.2154 90.8718 25.1077V6.86114C90.8718 5.72227 91.5184 5.07735 92.7179 5.07735H99.6431C103.488 5.07735 106.594 8.24617 106.594 11.9992C106.594 14.2474 105.272 16.2773 103.394 17.4769C104.473 18.3992 105.15 19.5085 105.58 20.9231L106.594 24.43C106.749 24.9223 106.811 25.2915 106.811 25.5081C106.811 26.3073 106.073 26.8931 105.118 26.8931H104.195C103.242 26.8931 102.687 26.4304 102.441 25.5688L101.427 21.9701C100.995 20.4603 99.671 18.8915 97.4884 18.8915H95.1795V25.1077ZM49.4277 18.4927C48.873 19.2919 48.4743 19.9073 47.3354 19.9073H46.7512C45.6123 19.9073 45.2119 19.2919 44.6589 18.4927L40.9337 12.9838V25.1077C40.9337 26.2154 40.2888 26.8931 39.0892 26.8931H38.4738C37.2431 26.8931 36.6277 26.2154 36.6277 25.1077V6.86114C36.6277 5.72227 37.2431 5.07735 38.4738 5.07735H39.2435C40.2888 5.07735 40.7499 5.38422 41.3046 6.18504L47.0269 14.5838L52.782 6.18504C53.3038 5.38422 53.7666 5.07735 54.8431 5.07735H55.6127C56.8435 5.07735 57.4589 5.72227 57.4589 6.86114V25.1077C57.4589 26.2154 56.8435 26.8931 55.6127 26.8931H54.9973C53.7666 26.8931 53.1512 26.2154 53.1512 25.1077V12.9838L49.4277 18.4927ZM62.8726 16C62.8726 9.81499 67.9483 4.76883 74.1629 4.76883C80.3807 4.76883 85.4564 9.81499 85.4564 16C85.4564 22.185 80.3807 27.2 74.1645 27.2C67.9483 27.2 62.8726 22.185 62.8726 16Z" fill="#FF3334"/>
</svg>
