<svg width="66" height="32" viewBox="0 0 66 32" fill="none" xmlns="http://www.w3.org/2000/svg">
<g clip-path="url(#clip0_13_2)">
<path d="M61.7 0H3.7C1.7 0 0 1.7 0 3.7V28.2C0 30.3 1.7 32 3.7 32H61.6C63.7 32 65.3 30.3 65.3 28.3V3.7C65.4 1.7 63.7 0 61.7 0Z" fill="#E6B91E"/>
<path d="M14.2 6.79999H9.39999V25.5H14.2V6.79999Z" fill="#010101"/>
<path fill-rule="evenodd" clip-rule="evenodd" d="M24.6 6.79999L23.5 15.5L22.8 10.8C22.6 9.29999 22.4 7.99999 22.2 6.79999H15.9V25.5H20.1V13.2L22 25.4H25L26.7 12.8V25.4H30.9V6.79999H24.6Z" fill="#010101"/>
<path fill-rule="evenodd" clip-rule="evenodd" d="M38.4 25.4C39.6 25.4 40.4 25.3 41 25.2C41.6 25.1 42.1 24.9 42.4 24.5C42.8 24.2 43.1 23.7 43.2 23.2C43.4 22.6 43.5 21.5 43.5 19.8V13.3C43.5 11.5 43.4 10.4 43.3 9.70001C43.2 9.10001 42.9 8.60001 42.5 8.10001C42.1 7.60001 41.4 7.30001 40.6 7.00001C39.8 6.80001 38.4 6.70001 36.1 6.70001H32.5V25.4H38.4ZM38.5 10.1C38.7 10.2 38.8 10.4 38.9 10.6C39 10.8 39 11.4 39 12.2V19.4C39 20.6 38.9 21.4 38.8 21.7C38.6 22 38.2 22.1 37.5 22.1V10C37.9 10 38.3 10 38.5 10.1Z" fill="#010101"/>
<path fill-rule="evenodd" clip-rule="evenodd" d="M45.2 6.79999V25.5H49.6L49.9 24.3C50.3 24.8 50.7 25.1 51.2 25.4C51.7 25.6 52.4 25.8 52.9 25.8C53.7 25.8 54.3 25.6 54.9 25.2C55.5 24.8 55.8 24.3 56 23.8C56.2 23.2 56.2 22.4 56.2 21.3V16.1C56.2 15 56.2 14.2 56.1 13.9C56.1 13.6 55.9 13.2 55.7 12.8C55.4 12.4 55.1 12.2 54.6 12C54.1 11.8 53.6 11.7 52.9 11.7C52.3 11.7 51.6 11.8 51.2 12C50.7 12.2 50.3 12.6 49.9 13V6.79999H45.2ZM51.5 20.9C51.5 21.8 51.5 22.4 51.4 22.6C51.3 22.8 50.9 23 50.6 23C50.3 23 50.1 22.9 50 22.7C49.9 22.5 49.9 21.9 49.9 21.1V16.2C49.9 15.3 49.9 14.8 50 14.6C50.1 14.4 50.3 14.3 50.6 14.3C50.9 14.3 51.3 14.4 51.4 14.7C51.5 14.9 51.6 15.5 51.6 16.2V20.9H51.5Z" fill="#010101"/>
</g>
<defs>
<clipPath id="clip0_13_2">
<rect width="65.4" height="32" fill="white"/>
</clipPath>
</defs>
</svg>
