<svg xmlns="http://www.w3.org/2000/svg" width="51.5" height="55" viewBox="0 0 51.5 55">
  <g id="Arrow_down" transform="translate(0 0.5)">
    <path id="Rectangle_1489" data-name="Rectangle 1489" d="M0,0H46a5,5,0,0,1,5,5V47a5,5,0,0,1-5,5H0a0,0,0,0,1,0,0V0A0,0,0,0,1,0,0Z" transform="translate(0.5 1.5)" fill="#fff"/>
    <line id="Line_44" data-name="Line 44" y2="55" transform="translate(0.5 -0.5)" fill="none" stroke="#695c5f" stroke-width="1"/>
    <path id="Polygon_1" data-name="Polygon 1" d="M5.639,1.457a1,1,0,0,1,1.722,0l4.748,8.034A1,1,0,0,1,11.248,11h-9.5A1,1,0,0,1,.892,9.491Z" transform="translate(32.5 36.5) rotate(180)" fill="#695c5f"/>
  </g>
</svg>
